<?xml version="1.0" encoding="utf-8"?>
<!-- Generator: Adobe Illustrator 27.0.0, SVG Export Plug-In . SVG Version: 6.00 Build 0)  -->
<svg version="1.1" id="Layer_1" xmlns="http://www.w3.org/2000/svg" xmlns:xlink="http://www.w3.org/1999/xlink" x="0px" y="0px"
	 viewBox="0 0 135 50" style="enable-background:new 0 0 135 50;" xml:space="preserve">
<style type="text/css">
	.st0{fill:#088475;}
	.st1{fill:#0ECCB1;}
</style>
<g>
	<g>
		<g>
			<g>
				<path class="st0" d="M17.69,8.19c0-0.95-0.39-1.22-0.71-1.39V6.08h4.79v0.73c-0.29,0.17-0.68,0.44-0.68,1.39v11.26
					c0,0.92,0.39,1.22,0.68,1.39v0.73h-4.79v-0.73c0.32-0.17,0.71-0.46,0.71-1.39V8.19z"/>
				<path class="st0" d="M27.37,19.45c0.02,0.92,0.39,1.22,0.71,1.39v0.73h-4.82v-0.73c0.32-0.17,0.71-0.46,0.71-1.39V7.27
					c0-0.92-0.39-1.22-0.71-1.39V5.52l3.79-1l0.32,0.27V19.45z"/>
				<path class="st0" d="M34.79,22.18l-4.94-10.65c-0.41-0.9-0.88-1.22-1.24-1.39V9.41h5.13v0.73c-0.24,0.17-0.56,0.49-0.15,1.39
					l3.02,6.52L38,14.66c0.75-1.9,0.53-3.65-0.54-4.52V9.41h4.28v0.73c-0.36,0.17-0.8,0.49-2.51,4.72l-2.24,5.55
					c-2.16,5.33-5.21,6.93-7.64,7.25l-2.41-2.55l0.15-0.34C27.37,24.71,33.31,25.44,34.79,22.18z"/>
				<path class="st0" d="M43.16,10.62c1.56-0.95,3.65-1.46,5.3-1.46c1.78,0,4.23,0.66,4.23,4.43v5.55c0,0.92,0.46,1.87,1.58,1.46
					l0.17,0.32c-0.61,0.44-1.41,0.9-2.51,0.9c-1.17,0-2.34-0.54-2.6-2.09c-0.9,1.29-2.38,2.09-3.96,2.09
					c-1.68,0-3.48-0.78-3.48-3.02c0-3.7,7.37-4.87,7.37-7.49c0-0.61-0.41-0.9-0.95-0.92c-1.73,0-3.92,3.14-4.79,4.43h-0.36V10.62z
					 M45.57,18.21c0,1.12,0.78,1.63,1.48,1.63c1.58,0,2.24-1.85,2.24-3.31v-2.87C46.86,15.17,45.57,16.54,45.57,18.21z"/>
				<path class="st0" d="M57.54,11.4c0,2.43,6.54,3.48,6.54,7.18c0,2.58-2.58,3.24-4.52,3.24c-1.41,0-3.62-0.27-4.91-0.66v-4.48
					h0.36c0.75,1.48,3.19,3.92,4.91,3.92c0.73,0,1.17-0.32,1.17-1.02c0-2.12-6.57-3.28-6.57-7.13c-0.02-2.26,2.24-3.28,4.62-3.28
					c1.7,0,2.85,0.39,4.4,1.46v3.04l-0.34,0.02c-1.19-1.53-3.04-3.31-4.5-3.31C58.27,10.38,57.54,10.62,57.54,11.4z"/>
				<path class="st0" d="M20.54,44.46v0.73H16.5v-0.73c0.29-0.17,1.17-0.46,1.17-1.39V31.81c0-0.95-0.39-1.22-0.68-1.39v-0.73h3.04
					l4.96,9.95l4.69-9.95h2.99v0.73C32.38,30.59,32,30.86,32,31.81v11.26c0,0.92,0.39,1.22,0.68,1.39v0.73h-4.77v-0.73
					c0.29-0.17,0.68-0.46,0.68-1.39v-7.08l-4.31,9.19h-0.36l-4.55-9.19v7.08C19.37,44,20.25,44.29,20.54,44.46z"/>
				<path class="st0" d="M33.8,39.16c0-3.19,2.19-6.37,6.62-6.37c3.75,0,6.59,2.53,6.59,6.35c-0.02,3.16-2.21,6.3-6.59,6.3
					C36.67,45.43,33.8,42.95,33.8,39.16z M37.13,37.04c0,2.94,1.99,7.08,4.4,7.05c1.51,0,2.14-1.26,2.14-2.89
					c0-2.97-2.02-7.13-4.4-7.13C37.59,34.07,37.13,35.65,37.13,37.04z"/>
				<path class="st0" d="M56.49,32.78c1.63,0,3.04,0.8,3.02,3.48v6.49c0,0.92,0.46,1.87,1.58,1.46l0.17,0.34
					c-0.61,0.41-1.41,0.88-2.51,0.88c-1.34,0-2.65-0.71-2.65-2.89v-5.72c0-1.36-0.39-2.14-1.51-2.14c-0.75,0-1.68,0.51-2.38,1v7.39
					c0,0.92,0.39,1.22,0.71,1.39v0.73H48.1v-0.73c0.32-0.17,0.71-0.46,0.71-1.39V30.4c0-0.92-0.39-1.22-0.71-1.39v-0.36l3.79-1
					l0.32,0.27v6.32C53.43,33.59,55.08,32.78,56.49,32.78z"/>
				<path class="st0" d="M62.45,34.24c1.56-0.95,3.65-1.46,5.3-1.46c1.78,0,4.23,0.66,4.23,4.43v5.55c0,0.92,0.46,1.87,1.58,1.46
					l0.17,0.32c-0.61,0.44-1.41,0.9-2.51,0.9c-1.17,0-2.34-0.54-2.6-2.09c-0.9,1.29-2.38,2.09-3.96,2.09
					c-1.68,0-3.48-0.78-3.48-3.02c0-3.7,7.37-4.87,7.37-7.49c0-0.61-0.41-0.9-0.95-0.92c-1.73,0-3.92,3.14-4.79,4.43h-0.36V34.24z
					 M64.86,41.83c0,1.12,0.78,1.63,1.48,1.63c1.58,0,2.24-1.85,2.24-3.31v-2.87C66.15,38.79,64.86,40.15,64.86,41.83z"/>
				<path class="st0" d="M91.52,42.76c0,0.92,0.49,1.87,1.61,1.46l0.17,0.32c-0.63,0.44-1.44,0.9-2.53,0.9
					c-1.34-0.02-2.65-0.71-2.65-2.89v-5.72c0-0.68-0.05-2.14-1.05-2.14c-0.66,0-1.53,0.58-2.36,1.17c0,0.15,0,0.27,0,0.41v6.81
					c-0.02,0.92,0.39,1.22,0.71,1.39v0.73H80.6v-0.73c0.32-0.17,0.71-0.46,0.71-1.39v-6.25c0-0.68-0.05-2.14-1.05-2.14
					c-0.58,0-1.36,0.46-2.12,1v7.39c0,0.92,0.39,1.22,0.71,1.39v0.73h-4.82v-0.73c0.32-0.17,0.71-0.46,0.71-1.39v-7.57
					c0-0.92-0.39-1.22-0.71-1.39v-0.36l3.84-0.97l0.27,0.24v1.19c1.17-0.73,2.38-1.44,3.65-1.44c1.31,0,2.16,0.78,2.6,1.8
					c1.34-0.85,2.75-1.8,4.21-1.8c1.99,0,2.92,1.8,2.92,3.48V42.76z"/>
				<path class="st0" d="M99.94,45.48c-3.84,0-6.71-2.85-6.71-6.67c0-3.06,2.02-6.03,6.35-6.03c4.91,0,5.25,4.33,3.75,5.67H96.8
					c0.66,3.31,3.41,6.18,7.35,5.23l0.15,0.34C103.27,44.97,101.64,45.48,99.94,45.48z M100.86,37.23c0-1.48-1.17-3.14-2.41-3.14
					c-1.24,0-1.8,1.26-1.8,2.8c0,0.12,0,0.22,0,0.34H100.86z"/>
				<path class="st0" d="M114.39,44.02c-1.36,0.9-2.75,1.19-4.01,1.19c-6.91,0-7.93-12.67,0.78-12.67c1,0,2.09,0.27,3.26,0.88v-2.53
					c0-0.92-0.39-1.22-0.68-1.39v-0.36l3.77-1l0.32,0.27v14.67c0,0.92,0.39,1.22,0.68,1.39v0.73h-4.11V44.02z M114.39,37.65
					c-1.61-5.13-6.18-5.06-6.18-0.75c0,4.06,3.82,8.05,6.18,5.69V37.65z"/>
			</g>
			<path class="st1" d="M68.07,16.79c15.69,5.08,29.1,5.18,44.87,0.39c-6.5,5.74-15.46,8.21-24.04,7.82
				C81.34,24.59,73.69,21.94,68.07,16.79L68.07,16.79z"/>
			<circle class="st0" cx="84.6" cy="13.64" r="2.36"/>
			<circle class="st0" cx="96.01" cy="13.64" r="2.36"/>
		</g>
	</g>
</g>
</svg>
